<svg width="180" height="66" viewBox="0 0 120 44" fill="none" xmlns="http://www.w3.org/2000/svg">
  <g clip-path="url(#clip0)">
    <path d="M38.23 43.68C37.27 43.68 36.25 43.57 35.18 43.37C34.11 43.16 33.2 42.95 32.47 42.72V40.8H37.27C39.45 40.8 41.03 40.23 42.02 39.1C43.01 37.96 43.51 35.89 43.51 32.88C42.81 33.23 42.07 33.52 41.3 33.74C40.53 33.96 39.67 34.08 38.71 34.08C37.05 34.08 35.62 33.7 34.44 32.95C33.26 32.2 32.35 30.92 31.73 29.11C31.11 27.3 30.79 24.8 30.79 21.6C30.79 18.4 31.12 15.9 31.77 14.09C32.43 12.28 33.45 11 34.84 10.25C36.23 9.5 38 9.12 40.14 9.12C41.58 9.12 42.92 9.24 44.17 9.48C45.42 9.72 46.63 10.08 47.82 10.56V31.68C47.82 34.72 47.48 37.11 46.81 38.86C46.14 40.6 45.1 41.84 43.69 42.58C42.29 43.31 40.47 43.68 38.23 43.68ZM40.15 31.2C40.76 31.2 41.38 31.1 42.02 30.89C42.66 30.68 43.16 30.47 43.51 30.24V12H40.15C39.13 12 38.23 12.26 37.46 12.79C36.69 13.32 36.11 14.28 35.71 15.67C35.31 17.06 35.11 19.04 35.11 21.6C35.11 24.16 35.31 26.14 35.71 27.53C36.11 28.92 36.69 29.88 37.46 30.41C38.23 30.94 39.12 31.2 40.15 31.2Z" fill="#f0f0f5"/>
    <path d="M58.63 0.96H54.31V6.24H58.63V0.96Z" fill="#D98F06"/>
    <path d="M58.63 9.6H54.31V33.6H58.63V9.6Z" fill="#f0f0f5"/>
    <path d="M65.35 33.6V0H69.67V33.6H65.35Z" fill="#f0f0f5"/>
    <path d="M80.71 0.96H76.39V6.24H80.71V0.96Z" fill="#D98F06"/>
    <path d="M80.71 9.6H76.39V33.6H80.71V9.6Z" fill="#f0f0f5"/>
    <path d="M87.91 33.6V13.2H85.03V10.08H87.91V8.16C87.91 5.92 88.21 4.22 88.8 3.05C89.39 1.88 90.19 1.08 91.2 0.65C92.2 0.22 93.35 0 94.63 0C95.11 0 95.69 0.05 96.36 0.14C97.03 0.24 97.7 0.36 98.35 0.5C99.01 0.64 99.53 0.8 99.91 0.96V2.88H95.59C95.11 2.88 94.61 3.02 94.08 3.29C93.55 3.56 93.11 4.08 92.76 4.85C92.41 5.62 92.23 6.72 92.23 8.16V10.08H98.95V12.24C98.25 12.46 97.35 12.68 96.26 12.89C95.17 13.1 94.15 13.2 93.19 13.2H92.23V33.6H87.91Z" fill="#f0f0f5"/>
    <path d="M109.51 43.68C108.55 43.68 107.53 43.57 106.46 43.37C105.39 43.16 104.48 42.95 103.75 42.72V40.8H108.55C110.73 40.8 112.31 40.23 113.3 39.1C114.29 37.96 114.79 35.89 114.79 32.88C114.09 33.23 113.35 33.52 112.58 33.74C111.81 33.96 110.95 34.08 109.99 34.08C108.49 34.08 107.17 33.88 106.05 33.48C104.93 33.08 104.07 32.36 103.46 31.32C102.85 30.28 102.55 28.8 102.55 26.88V9.6H106.87V26.88C106.87 28.54 107.3 29.68 108.17 30.29C109.03 30.9 110.12 31.2 111.43 31.2C112.04 31.2 112.66 31.1 113.3 30.89C113.94 30.68 114.44 30.47 114.79 30.24V9.6H119.11V31.68C119.11 34.72 118.77 37.11 118.1 38.86C117.43 40.6 116.39 41.84 114.98 42.58C113.57 43.31 111.75 43.68 109.51 43.68Z" fill="#f0f0f5"/>
    <path d="M17.13 0.96H11.9L0.48 34.56C3.58 34.34 6.68 34.12 9.78 33.9C9.84 27.1 10.58 19.3 12.64 10.88C13.16 8.76 13.73 6.74 14.34 4.8H14.44C15.06 6.75 15.65 8.8 16.18 10.93C18.28 19.32 19.06 27.11 19.15 33.9C22.3 34.12 25.44 34.34 28.59 34.56L17.13 0.96Z" fill="#f0f0f5"/>
    <path d="M25.02 12.78C24.04 15.41 21.88 20.07 17.31 24.24C10.51 30.45 2.76 31.57 0 31.84C1.08 28.74 2.16 25.64 3.24 22.54C5.21 22.93 9.19 23.42 13.77 21.89C20.62 19.6 24.07 14.35 25.02 12.78Z" fill="#D98F06"/>
  </g>
  <defs><clipPath id="clip0"><rect width="119.11" height="43.68" fill="white"/></clipPath></defs>
</svg>
